<svg version="1.1" id="Layer_1" xmlns="http://www.w3.org/2000/svg" xmlns:xlink="http://www.w3.org/1999/xlink" x="0px" y="0px"
	 width="100%" viewBox="0 0 430 180" enable-background="new 0 0 430 180" xml:space="preserve">
<path fill="#242424" opacity="1.000000" stroke="none" 
	d="
M264.000000,181.000000 
	C176.000031,181.000000 88.500053,181.000000 1.000059,181.000000 
	C1.000039,121.000046 1.000039,61.000088 1.000020,1.000099 
	C144.333237,1.000066 287.666473,1.000066 430.999817,1.000033 
	C430.999878,60.999893 430.999878,120.999786 430.999939,180.999847 
	C375.500000,181.000000 320.000000,181.000000 264.000000,181.000000 
M252.936356,109.962570 
	C252.295563,107.397949 251.490616,104.861366 251.046677,102.263115 
	C249.982468,96.034462 246.942627,93.092911 240.722000,93.044884 
	C228.483780,92.950394 216.243423,92.935555 204.005600,93.055061 
	C196.424744,93.129089 192.360794,97.976685 193.301331,105.383713 
	C193.467026,106.688728 193.597382,108.012001 193.578720,109.324486 
	C193.427628,119.954613 192.755417,130.603729 193.185928,141.208740 
	C193.674316,153.239929 200.225388,158.375916 212.047943,159.148880 
	C224.795929,159.982361 233.629944,153.305038 242.552872,145.851120 
	C250.477280,139.231323 254.189743,131.195541 253.058655,120.856247 
	C252.698700,117.566063 252.982727,114.205429 252.936356,109.962570 
M239.067169,29.999714 
	C239.059204,38.330345 238.891129,46.664970 239.098938,54.990215 
	C239.240005,60.641785 243.211777,64.585175 248.413284,64.896774 
	C253.253693,65.186745 258.077301,62.016682 258.577881,57.133041 
	C259.690979,46.273872 260.416779,35.361572 260.857880,24.453032 
	C261.056915,19.530914 257.332642,15.825885 252.743958,15.129044 
	C247.737396,14.368747 243.377640,16.787601 241.561432,21.521162 
	C240.611435,23.997208 239.942062,26.580931 239.067169,29.999714 
M212.938644,51.930210 
	C212.956207,42.614944 213.041626,33.299145 212.968994,23.984583 
	C212.914963,17.053476 209.002274,12.952640 202.802612,13.048985 
	C196.848511,13.141513 193.099747,17.191540 193.030991,23.880350 
	C192.942078,32.529598 192.959351,41.180790 193.023270,49.830460 
	C193.068863,55.999096 196.021713,59.965313 201.020309,60.848774 
	C206.626831,61.839684 210.674026,59.088367 212.938644,51.930210 
z"/>
<path fill="#377C22" opacity="1.000000" stroke="none" 
	d="
M252.954208,110.419800 
	C252.982727,114.205429 252.698700,117.566063 253.058655,120.856247 
	C254.189743,131.195541 250.477280,139.231323 242.552872,145.851120 
	C233.629944,153.305038 224.795929,159.982361 212.047943,159.148880 
	C200.225388,158.375916 193.674316,153.239929 193.185928,141.208740 
	C192.755417,130.603729 193.427628,119.954613 193.578720,109.324486 
	C193.597382,108.012001 193.467026,106.688728 193.301331,105.383713 
	C192.360794,97.976685 196.424744,93.129089 204.005600,93.055061 
	C216.243423,92.935555 228.483780,92.950394 240.722000,93.044884 
	C246.942627,93.092911 249.982468,96.034462 251.046677,102.263115 
	C251.490616,104.861366 252.295563,107.397949 252.954208,110.419800 
M215.395462,138.055908 
	C222.015350,135.914230 228.275925,132.826340 231.275253,126.319984 
	C232.808563,122.993797 232.726639,118.630005 232.257278,114.874863 
	C232.136429,113.908028 227.824127,113.150887 225.372101,112.873299 
	C222.628708,112.562714 219.809219,113.001167 217.026459,112.942444 
	C213.390274,112.865715 212.535019,114.924438 212.656586,118.053139 
	C212.830597,122.531502 212.705475,127.027672 213.043808,131.490784 
	C213.207687,133.652512 214.135620,135.756302 215.395462,138.055908 
z"/>
<path fill="#377C22" opacity="1.000000" stroke="none" 
	d="
M239.106552,29.557869 
	C239.942062,26.580931 240.611435,23.997208 241.561432,21.521162 
	C243.377640,16.787601 247.737396,14.368747 252.743958,15.129044 
	C257.332642,15.825885 261.056915,19.530914 260.857880,24.453032 
	C260.416779,35.361572 259.690979,46.273872 258.577881,57.133041 
	C258.077301,62.016682 253.253693,65.186745 248.413284,64.896774 
	C243.211777,64.585175 239.240005,60.641785 239.098938,54.990215 
	C238.891129,46.664970 239.059204,38.330345 239.106552,29.557869 
z"/>
<path fill="#377C22" opacity="1.000000" stroke="none" 
	d="
M212.902969,52.362671 
	C210.674026,59.088367 206.626831,61.839684 201.020309,60.848774 
	C196.021713,59.965313 193.068863,55.999096 193.023270,49.830460 
	C192.959351,41.180790 192.942078,32.529598 193.030991,23.880350 
	C193.099747,17.191540 196.848511,13.141513 202.802612,13.048985 
	C209.002274,12.952640 212.914963,17.053476 212.968994,23.984583 
	C213.041626,33.299145 212.956207,42.614944 212.902969,52.362671 
z"/>
<path fill="#242524" opacity="1.000000" stroke="none" 
	d="
M215.056549,137.971115 
	C214.135620,135.756302 213.207687,133.652512 213.043808,131.490784 
	C212.705475,127.027672 212.830597,122.531502 212.656586,118.053139 
	C212.535019,114.924438 213.390274,112.865715 217.026459,112.942444 
	C219.809219,113.001167 222.628708,112.562714 225.372101,112.873299 
	C227.824127,113.150887 232.136429,113.908028 232.257278,114.874863 
	C232.726639,118.630005 232.808563,122.993797 231.275253,126.319984 
	C228.275925,132.826340 222.015350,135.914230 215.056549,137.971115 
z"/>
</svg>