<svg version="1.1" id="Layer_1" xmlns="http://www.w3.org/2000/svg" xmlns:xlink="http://www.w3.org/1999/xlink" x="0px" y="0px"
	 width="100%" viewBox="0 0 672 748" enable-background="new 0 0 672 748" xml:space="preserve">
<path fill="#242424" opacity="1.000000" stroke="none" 
	d="
M288.000000,749.000000 
	C192.016800,749.000000 96.533592,749.000000 1.025197,749.000000 
	C1.025197,499.727325 1.025197,250.454636 1.025197,1.090981 
	C224.899918,1.090981 448.799866,1.090981 672.849915,1.090981 
	C672.849915,250.333267 672.849915,499.666626 672.849915,749.000000 
	C544.787903,749.000000 416.643951,749.000000 288.000000,749.000000 
M194.331696,625.464111 
	C195.392700,629.876526 196.492386,634.105957 201.307739,636.270935 
	C207.385056,639.003235 213.111252,642.571960 219.297211,644.991760 
	C225.561462,647.442261 232.546631,647.728394 238.698471,650.825562 
	C239.560257,651.259460 240.959824,650.550720 242.116684,650.490173 
	C243.910263,650.396240 245.718292,650.271912 247.504303,650.393677 
	C254.479065,650.869080 261.436981,647.991516 268.520508,650.604187 
	C269.879791,651.105530 272.293304,648.971863 274.123108,647.889343 
	C275.204163,647.249817 276.094116,646.287354 277.070038,645.470154 
	C277.030457,645.941345 276.990875,646.412598 276.951294,646.883789 
	C280.691803,648.207703 285.144501,651.489746 288.022766,650.442932 
	C293.790802,648.345032 298.808685,650.391724 303.927063,650.183594 
	C310.794098,649.904419 317.321381,649.146667 324.301483,650.455139 
	C327.013977,650.963623 330.555420,647.050049 334.256073,644.828613 
	C339.132202,647.851379 344.400940,648.043030 349.338409,642.932251 
	C350.145355,642.096924 352.392365,642.169128 353.814941,642.501648 
	C358.352539,643.562073 361.827789,642.267395 365.095245,638.995605 
	C366.423370,637.665833 368.909149,636.743713 370.789459,636.864258 
	C375.179169,637.145630 378.570953,635.959839 381.359589,632.537537 
	C382.184662,631.524963 383.856140,630.236511 384.816772,630.460449 
	C390.102844,631.692200 394.298126,630.385986 397.819305,626.271423 
	C398.464569,625.517456 399.970398,625.573364 400.920868,624.995300 
	C407.753326,620.840088 414.633972,616.753723 421.323242,612.376465 
	C427.406189,608.395996 433.875702,604.890686 438.145386,598.565674 
	C439.830231,596.069763 442.391052,594.166260 444.546295,591.986450 
	C445.652130,590.868103 446.665619,589.643799 447.859131,588.630188 
	C449.731476,587.040039 452.021637,585.847168 453.596832,584.021790 
	C456.685883,580.442139 458.751251,575.665710 462.403168,572.946045 
	C471.932159,565.849426 474.072418,553.210876 483.432129,546.162170 
	C484.019196,545.720032 484.152161,544.688232 484.523621,543.944336 
	C487.001221,538.982117 488.539734,533.469177 493.690704,530.170227 
	C495.068817,529.287598 495.610016,527.149048 496.637909,525.657654 
	C498.581482,522.837646 500.290131,519.771179 502.640045,517.330505 
	C512.318848,507.277740 522.572144,497.719666 527.615784,484.167023 
	C529.928772,477.951965 533.521118,472.016418 534.701111,465.616302 
	C537.355896,451.216278 544.415100,438.924316 551.733337,426.762329 
	C554.563538,422.058838 556.081909,417.761139 553.881165,412.763550 
	C551.780029,407.992188 547.498779,406.667206 542.669861,407.029236 
	C534.922729,407.610046 527.200500,408.664551 519.446106,408.969086 
	C510.629852,409.315308 501.789520,409.011719 492.960358,409.082184 
	C488.684540,409.116302 484.382385,409.101562 480.141235,409.561432 
	C471.002136,410.552490 461.896973,411.854034 452.772888,412.987762 
	C450.471161,413.273743 448.128174,413.268188 445.842468,413.635254 
	C439.220703,414.698700 432.609497,416.901672 426.010040,416.843903 
	C397.982758,416.598541 369.959595,415.753754 341.939789,414.957764 
	C338.685364,414.865295 335.460602,413.146881 332.222778,413.149170 
	C315.128662,413.161194 298.034546,413.619293 280.940857,413.597961 
	C276.876556,413.592865 272.802094,412.405365 268.753479,411.648499 
	C264.409058,410.836334 260.094116,409.147400 255.758484,409.120850 
	C220.939819,408.907562 186.119232,409.027649 151.299500,408.938202 
	C148.360641,408.930664 145.354294,408.404816 142.500214,407.657776 
	C136.203751,406.009674 128.458603,410.051544 127.369293,416.425873 
	C126.173744,423.421844 125.077614,430.562073 125.166618,437.623962 
	C125.356689,452.704773 127.213898,467.802460 126.751480,482.842926 
	C126.291153,497.815399 130.565979,512.072510 131.335785,526.790161 
	C131.423523,528.467224 132.810059,530.072266 133.576721,531.718933 
	C134.754791,534.249268 135.947357,536.773621 137.080719,539.324097 
	C139.544037,544.867371 141.844559,550.488525 144.499985,555.937378 
	C145.249390,557.475159 147.216904,558.371277 148.246704,559.829407 
	C151.245377,564.075500 154.289719,568.322388 156.850281,572.833374 
	C158.542480,575.814453 159.488876,579.230713 160.661804,582.490784 
	C161.537674,584.925171 162.802582,587.398499 162.904846,589.894958 
	C163.112610,594.966858 165.434540,598.319031 169.647705,600.778442 
	C171.180176,601.673096 172.545944,602.893066 173.874832,604.090027 
	C181.033340,610.537903 183.927567,621.066467 194.331696,625.464111 
M504.808868,117.225227 
	C501.829895,117.293564 498.659119,116.721031 495.906281,117.544952 
	C485.836548,120.558868 475.275146,122.276207 466.871735,129.694794 
	C463.506287,132.665802 460.993896,135.390961 461.012054,139.978485 
	C461.036407,146.135559 461.015778,152.292847 460.999634,158.450027 
	C460.966339,171.159470 468.493591,178.798615 481.215118,178.946716 
	C483.544708,178.973831 485.874695,179.003113 488.204285,178.990723 
	C498.101318,178.938080 504.184631,171.807922 511.179108,166.443420 
	C512.089050,165.745529 512.596130,164.099609 512.702026,162.843262 
	C513.534546,152.968399 514.961243,143.061050 514.688416,133.205688 
	C514.517029,127.019089 513.253906,119.999886 504.808868,117.225227 
M179.479385,169.969299 
	C183.722702,175.727051 189.373489,177.903015 196.460068,177.066391 
	C199.743286,176.678818 203.134659,177.230118 206.425507,176.876480 
	C208.653625,176.637054 211.240341,176.112717 212.893097,174.766251 
	C220.137573,168.864334 227.245987,162.591507 229.857224,153.166229 
	C231.629181,146.770325 233.064682,139.746368 228.335968,134.091614 
	C219.307037,123.294434 207.647507,117.754868 193.299774,119.097786 
	C190.028824,119.403946 186.843658,120.643974 183.572983,120.932304 
	C176.239105,121.578842 172.829071,124.652924 173.090302,131.966843 
	C173.414230,141.036026 174.043686,150.119751 175.146652,159.123016 
	C175.581024,162.668518 177.649841,166.013779 179.479385,169.969299 
z"/>
<path fill="#377C22" opacity="1.000000" stroke="none" 
	d="
M194.067978,625.192200 
	C183.927567,621.066467 181.033340,610.537903 173.874832,604.090027 
	C172.545944,602.893066 171.180176,601.673096 169.647705,600.778442 
	C165.434540,598.319031 163.112610,594.966858 162.904846,589.894958 
	C162.802582,587.398499 161.537674,584.925171 160.661804,582.490784 
	C159.488876,579.230713 158.542480,575.814453 156.850281,572.833374 
	C154.289719,568.322388 151.245377,564.075500 148.246704,559.829407 
	C147.216904,558.371277 145.249390,557.475159 144.499985,555.937378 
	C141.844559,550.488525 139.544037,544.867371 137.080719,539.324097 
	C135.947357,536.773621 134.754791,534.249268 133.576721,531.718933 
	C132.810059,530.072266 131.423523,528.467224 131.335785,526.790161 
	C130.565979,512.072510 126.291153,497.815399 126.751480,482.842926 
	C127.213898,467.802460 125.356689,452.704773 125.166618,437.623962 
	C125.077614,430.562073 126.173744,423.421844 127.369293,416.425873 
	C128.458603,410.051544 136.203751,406.009674 142.500214,407.657776 
	C145.354294,408.404816 148.360641,408.930664 151.299500,408.938202 
	C186.119232,409.027649 220.939819,408.907562 255.758484,409.120850 
	C260.094116,409.147400 264.409058,410.836334 268.753479,411.648499 
	C272.802094,412.405365 276.876556,413.592865 280.940857,413.597961 
	C298.034546,413.619293 315.128662,413.161194 332.222778,413.149170 
	C335.460602,413.146881 338.685364,414.865295 341.939789,414.957764 
	C369.959595,415.753754 397.982758,416.598541 426.010040,416.843903 
	C432.609497,416.901672 439.220703,414.698700 445.842468,413.635254 
	C448.128174,413.268188 450.471161,413.273743 452.772888,412.987762 
	C461.896973,411.854034 471.002136,410.552490 480.141235,409.561432 
	C484.382385,409.101562 488.684540,409.116302 492.960358,409.082184 
	C501.789520,409.011719 510.629852,409.315308 519.446106,408.969086 
	C527.200500,408.664551 534.922729,407.610046 542.669861,407.029236 
	C547.498779,406.667206 551.780029,407.992188 553.881165,412.763550 
	C556.081909,417.761139 554.563538,422.058838 551.733337,426.762329 
	C544.415100,438.924316 537.355896,451.216278 534.701111,465.616302 
	C533.521118,472.016418 529.928772,477.951965 527.615784,484.167023 
	C522.572144,497.719666 512.318848,507.277740 502.640045,517.330505 
	C500.290131,519.771179 498.581482,522.837646 496.637909,525.657654 
	C495.610016,527.149048 495.068817,529.287598 493.690704,530.170227 
	C488.539734,533.469177 487.001221,538.982117 484.523621,543.944336 
	C484.152161,544.688232 484.019196,545.720032 483.432129,546.162170 
	C474.072418,553.210876 471.932159,565.849426 462.403168,572.946045 
	C458.751251,575.665710 456.685883,580.442139 453.596832,584.021790 
	C452.021637,585.847168 449.731476,587.040039 447.859131,588.630188 
	C446.665619,589.643799 445.652130,590.868103 444.546295,591.986450 
	C442.391052,594.166260 439.830231,596.069763 438.145386,598.565674 
	C433.875702,604.890686 427.406189,608.395996 421.323242,612.376465 
	C414.633972,616.753723 407.753326,620.840088 400.920868,624.995300 
	C399.970398,625.573364 398.464569,625.517456 397.819305,626.271423 
	C394.298126,630.385986 390.102844,631.692200 384.816772,630.460449 
	C383.856140,630.236511 382.184662,631.524963 381.359589,632.537537 
	C378.570953,635.959839 375.179169,637.145630 370.789459,636.864258 
	C368.909149,636.743713 366.423370,637.665833 365.095245,638.995605 
	C361.827789,642.267395 358.352539,643.562073 353.814941,642.501648 
	C352.392365,642.169128 350.145355,642.096924 349.338409,642.932251 
	C344.400940,648.043030 339.132202,647.851379 334.256073,644.828613 
	C330.555420,647.050049 327.013977,650.963623 324.301483,650.455139 
	C317.321381,649.146667 310.794098,649.904419 303.927063,650.183594 
	C298.808685,650.391724 293.790802,648.345032 288.022766,650.442932 
	C285.144501,651.489746 280.691803,648.207703 276.951294,646.883789 
	C276.990875,646.412598 277.030457,645.941345 277.070038,645.470154 
	C276.094116,646.287354 275.204163,647.249817 274.123108,647.889343 
	C272.293304,648.971863 269.879791,651.105530 268.520508,650.604187 
	C261.436981,647.991516 254.479065,650.869080 247.504303,650.393677 
	C245.718292,650.271912 243.910263,650.396240 242.116684,650.490173 
	C240.959824,650.550720 239.560257,651.259460 238.698471,650.825562 
	C232.546631,647.728394 225.561462,647.442261 219.297211,644.991760 
	C213.111252,642.571960 207.385056,639.003235 201.307739,636.270935 
	C196.492386,634.105957 195.392700,629.876526 194.067978,625.192200 
M335.899841,433.102356 
	C316.237701,433.061646 296.574066,433.137451 276.914520,432.890656 
	C272.506439,432.835327 268.113434,431.645081 263.711914,430.987640 
	C259.146240,430.305695 254.584351,429.101562 250.011002,429.053284 
	C229.349991,428.835175 208.685486,428.934845 188.022247,428.942017 
	C176.357895,428.946045 164.693390,428.968353 153.029312,429.039215 
	C150.534805,429.054382 147.320999,428.899231 148.328430,432.821045 
	C149.679504,438.080780 146.028214,444.012756 150.608337,448.816528 
	C151.051697,449.281555 150.839035,450.422729 150.840958,451.250275 
	C150.866623,462.230499 151.975540,473.361969 150.493927,484.136627 
	C149.544479,491.041290 150.026993,497.306152 150.470367,504.067505 
	C151.182144,514.922058 153.123520,525.029236 158.527069,534.370117 
	C162.656250,541.508057 167.499130,548.243225 171.450089,555.471558 
	C176.309296,564.361511 180.291519,573.731323 185.162918,582.613953 
	C191.195038,593.613281 198.796326,603.330505 209.699585,610.138306 
	C214.071869,612.868347 217.771225,616.269836 219.290771,621.774841 
	C219.855576,623.821045 222.658081,625.436218 224.729828,626.811707 
	C226.035339,627.678589 228.201218,627.307678 229.424850,628.229919 
	C235.375824,632.715576 242.145584,630.976990 248.722595,631.492493 
	C255.450989,632.019836 262.005096,632.896973 268.758911,631.429871 
	C270.332428,631.088074 272.608002,633.072510 274.263794,634.366394 
	C275.205963,635.102661 275.547424,636.607666 276.151428,637.751465 
	C284.076263,629.943420 285.621765,629.752869 294.235077,633.817383 
	C295.299866,634.319824 297.226166,634.167419 298.194702,633.503601 
	C302.748871,630.381714 307.084717,630.274109 311.649475,633.428589 
	C312.585632,634.075439 314.513733,634.636597 315.154175,634.148254 
	C320.294067,630.228821 325.461609,629.931641 330.302277,633.801575 
	C332.532928,631.687744 333.995728,629.151550 335.941193,628.701416 
	C339.795593,627.809448 344.512970,629.228027 347.771667,627.550598 
	C351.576996,625.591858 354.525909,622.467468 359.427612,623.172180 
	C361.040070,623.403992 363.413239,622.610291 364.500977,621.425049 
	C367.755371,617.878906 371.388214,616.501404 376.133698,617.344666 
	C377.344543,617.559814 378.885803,616.757141 380.080719,616.079224 
	C386.260132,612.572815 392.371948,608.947388 398.524414,605.393127 
	C398.936768,605.154907 399.564697,605.279785 399.963715,605.030212 
	C401.428345,604.113892 402.832550,603.101562 404.270721,602.142151 
	C406.820831,600.441101 409.357819,598.718872 411.943420,597.073303 
	C413.146790,596.307434 414.938080,596.019470 415.627625,594.967407 
	C419.056366,589.736328 424.529999,586.349854 428.825317,582.203369 
	C433.227814,577.953369 436.335114,572.394897 441.509491,568.859131 
	C444.194916,567.024109 447.342255,564.793152 448.507843,562.000916 
	C452.484894,552.473572 461.684265,546.740112 465.488068,536.941895 
	C467.572723,531.572021 472.660217,527.378052 476.324890,522.601013 
	C476.912628,521.834900 477.054230,520.742859 477.545807,519.883728 
	C479.997253,515.599304 482.117950,511.057434 485.064636,507.139893 
	C489.959564,500.632202 498.163177,496.793457 500.430634,488.090240 
	C500.660309,487.208618 501.459473,486.227753 502.264893,485.783508 
	C507.815125,482.722260 509.117096,476.953796 510.904419,471.743713 
	C514.601501,460.966797 517.729370,449.995605 521.185425,439.134247 
	C522.162354,436.064087 523.465271,433.097626 524.867859,429.432495 
	C522.235046,429.224823 520.459717,428.966705 518.683960,428.964020 
	C507.519562,428.947174 496.355042,428.969818 485.190826,429.029144 
	C483.705383,429.037018 482.216919,429.292603 480.737549,429.490753 
	C472.063843,430.652649 463.394409,431.846619 454.718811,432.994019 
	C452.584991,433.276215 450.421814,433.343445 448.292450,433.650543 
	C440.938019,434.711121 433.608063,436.641327 426.240814,436.782623 
	C403.585571,437.217041 380.911621,437.269470 358.257538,436.825836 
	C351.076752,436.685211 343.935577,434.520966 335.899841,433.102356 
z"/>
<path fill="#377D22" opacity="1.000000" stroke="none" 
	d="
M505.207886,117.327744 
	C513.253906,119.999886 514.517029,127.019089 514.688416,133.205688 
	C514.961243,143.061050 513.534546,152.968399 512.702026,162.843262 
	C512.596130,164.099609 512.089050,165.745529 511.179108,166.443420 
	C504.184631,171.807922 498.101318,178.938080 488.204285,178.990723 
	C485.874695,179.003113 483.544708,178.973831 481.215118,178.946716 
	C468.493591,178.798615 460.966339,171.159470 460.999634,158.450027 
	C461.015778,152.292847 461.036407,146.135559 461.012054,139.978485 
	C460.993896,135.390961 463.506287,132.665802 466.871735,129.694794 
	C475.275146,122.276207 485.836548,120.558868 495.906281,117.544952 
	C498.659119,116.721031 501.829895,117.293564 505.207886,117.327744 
z"/>
<path fill="#377D22" opacity="1.000000" stroke="none" 
	d="
M179.226868,169.709763 
	C177.649841,166.013779 175.581024,162.668518 175.146652,159.123016 
	C174.043686,150.119751 173.414230,141.036026 173.090302,131.966843 
	C172.829071,124.652924 176.239105,121.578842 183.572983,120.932304 
	C186.843658,120.643974 190.028824,119.403946 193.299774,119.097786 
	C207.647507,117.754868 219.307037,123.294434 228.335968,134.091614 
	C233.064682,139.746368 231.629181,146.770325 229.857224,153.166229 
	C227.245987,162.591507 220.137573,168.864334 212.893097,174.766251 
	C211.240341,176.112717 208.653625,176.637054 206.425507,176.876480 
	C203.134659,177.230118 199.743286,176.678818 196.460068,177.066391 
	C189.373489,177.903015 183.722702,175.727051 179.226868,169.709763 
z"/>
<path fill="#242424" opacity="1.000000" stroke="none" 
	d="
M336.338074,433.192566 
	C343.935577,434.520966 351.076752,436.685211 358.257538,436.825836 
	C380.911621,437.269470 403.585571,437.217041 426.240814,436.782623 
	C433.608063,436.641327 440.938019,434.711121 448.292450,433.650543 
	C450.421814,433.343445 452.584991,433.276215 454.718811,432.994019 
	C463.394409,431.846619 472.063843,430.652649 480.737549,429.490753 
	C482.216919,429.292603 483.705383,429.037018 485.190826,429.029144 
	C496.355042,428.969818 507.519562,428.947174 518.683960,428.964020 
	C520.459717,428.966705 522.235046,429.224823 524.867859,429.432495 
	C523.465271,433.097626 522.162354,436.064087 521.185425,439.134247 
	C517.729370,449.995605 514.601501,460.966797 510.904419,471.743713 
	C509.117096,476.953796 507.815125,482.722260 502.264893,485.783508 
	C501.459473,486.227753 500.660309,487.208618 500.430634,488.090240 
	C498.163177,496.793457 489.959564,500.632202 485.064636,507.139893 
	C482.117950,511.057434 479.997253,515.599304 477.545807,519.883728 
	C477.054230,520.742859 476.912628,521.834900 476.324890,522.601013 
	C472.660217,527.378052 467.572723,531.572021 465.488068,536.941895 
	C461.684265,546.740112 452.484894,552.473572 448.507843,562.000916 
	C447.342255,564.793152 444.194916,567.024109 441.509491,568.859131 
	C436.335114,572.394897 433.227814,577.953369 428.825317,582.203369 
	C424.529999,586.349854 419.056366,589.736328 415.627625,594.967407 
	C414.938080,596.019470 413.146790,596.307434 411.943420,597.073303 
	C409.357819,598.718872 406.820831,600.441101 404.270721,602.142151 
	C402.832550,603.101562 401.428345,604.113892 399.963715,605.030212 
	C399.564697,605.279785 398.936768,605.154907 398.524414,605.393127 
	C392.371948,608.947388 386.260132,612.572815 380.080719,616.079224 
	C378.885803,616.757141 377.344543,617.559814 376.133698,617.344666 
	C371.388214,616.501404 367.755371,617.878906 364.500977,621.425049 
	C363.413239,622.610291 361.040070,623.403992 359.427612,623.172180 
	C354.525909,622.467468 351.576996,625.591858 347.771667,627.550598 
	C344.512970,629.228027 339.795593,627.809448 335.941193,628.701416 
	C333.995728,629.151550 332.532928,631.687744 330.302277,633.801575 
	C325.461609,629.931641 320.294067,630.228821 315.154175,634.148254 
	C314.513733,634.636597 312.585632,634.075439 311.649475,633.428589 
	C307.084717,630.274109 302.748871,630.381714 298.194702,633.503601 
	C297.226166,634.167419 295.299866,634.319824 294.235077,633.817383 
	C285.621765,629.752869 284.076263,629.943420 276.151428,637.751465 
	C275.547424,636.607666 275.205963,635.102661 274.263794,634.366394 
	C272.608002,633.072510 270.332428,631.088074 268.758911,631.429871 
	C262.005096,632.896973 255.450989,632.019836 248.722595,631.492493 
	C242.145584,630.976990 235.375824,632.715576 229.424850,628.229919 
	C228.201218,627.307678 226.035339,627.678589 224.729828,626.811707 
	C222.658081,625.436218 219.855576,623.821045 219.290771,621.774841 
	C217.771225,616.269836 214.071869,612.868347 209.699585,610.138306 
	C198.796326,603.330505 191.195038,593.613281 185.162918,582.613953 
	C180.291519,573.731323 176.309296,564.361511 171.450089,555.471558 
	C167.499130,548.243225 162.656250,541.508057 158.527069,534.370117 
	C153.123520,525.029236 151.182144,514.922058 150.470367,504.067505 
	C150.026993,497.306152 149.544479,491.041290 150.493927,484.136627 
	C151.975540,473.361969 150.866623,462.230499 150.840958,451.250275 
	C150.839035,450.422729 151.051697,449.281555 150.608337,448.816528 
	C146.028214,444.012756 149.679504,438.080780 148.328430,432.821045 
	C147.320999,428.899231 150.534805,429.054382 153.029312,429.039215 
	C164.693390,428.968353 176.357895,428.946045 188.022247,428.942017 
	C208.685486,428.934845 229.349991,428.835175 250.011002,429.053284 
	C254.584351,429.101562 259.146240,430.305695 263.711914,430.987640 
	C268.113434,431.645081 272.506439,432.835327 276.914520,432.890656 
	C296.574066,433.137451 316.237701,433.061646 336.338074,433.192566 
z"/>
</svg>